<?xml version="1.0" encoding="UTF-8"?>
<svg id="Layer_1" xmlns="http://www.w3.org/2000/svg" version="1.1" viewBox="0 0 1080 1080">
  <!-- Generator: Adobe Illustrator 29.2.1, SVG Export Plug-In . SVG Version: 2.1.0 Build 116)  -->
  <defs>
    <style>
      .st0 {
        fill: #fff;
        fill-rule: evenodd;
      }
    </style>
  </defs>
  <rect width="1080" height="1080"/>
  <path class="st0" d="M372.29,596.52c24.93-4.76,39.87-29.9,43.95-54.14.91-6.12-6.79-9.06-12.68-6.34-5.21,2.49-7.48,4.31-14.27,9.75-12.69,10.19-20.62,23.79-23.79,40.08-1.13,5.44,3.16,11.33,6.79,10.65h0ZM546.84,600.82c6.45,1.81,11.66-3.63,13.25-8.61,3.17-10.63,1.37-22.42-2.72-32.17-1.81,1.59-15.64,18.12-20.16,24.25-2.71,3.62,2.49,14.5,9.63,16.53h0ZM706.45,592.44c1.57,5.66,9.05,4.76,13.12,2.96,20.38-9.06,34.66-32.63,35.8-54.6.22-4.53-6.13-6.8-11.1-4.99-12.01,4.54-20.16,13.14-27.64,24.02-7.02,9.96-13.14,20.84-10.18,32.61h0ZM892.86,539.2c.23.68,20.39-15.4,32.86-31.03,12.23-15.63,18.12-32.39,18.12-32.39,0,0-13.82,10.19-26.73,25.83-15.4,19.02-24.24,37.59-24.24,37.59h0ZM486.91,511.58l.45-.68c5.44-7.48,7.48-17.9.22-21.53-.9-.44-2.49,2.5-2.94,4.53-1.81,6.12-1.36,12.24,2.26,17.68h0ZM475.81,528.69c-7.02-12.92-10.42-27.76-4.53-41.36,5.67-13.36,26.05-18.35,33.53-3.39,8.37,16.76-3.64,31.25-7.25,38.06-1.14,2.03,9.51-.92,13.59-.92,8.16-.45,12.91,7.71,9.05,14.04-12.68,20.4-33.75,34.89-36.46,59.35-.69,6.12,14.72,2.95,33.07-12.46.46-.44,33.08-40.32,58-70.91,5.66-6.79,24.69.23,18.57,9.29-5.44,7.94-10.87,14.05-14.28,18.8-4.75,7.02,7.48,11.78,6.35,38.51,9.28-7.25,24.23-16.99,24.69-17.67,15.63-32.61,32.17-70.45,47.58-103.97,3.85-8.38,24.7-4.08,19.94,6.57-9.74,22.21-19.94,45.99-29,67.95-.44.91,16.55-9.96,18.13-10.64,11.78-3.85,16.77,6.57,18.58,14.05,4.07,17.44-14.51,41.01-23.33,57.76-2.27,4.08,2.94,2.04,4.98.68,6.35-3.85,16.76-13.59,16.98-14.49,15.18-41.01,65.24-73.4,84.27-49.39,1.36-2.03,3.4-5.2,3.63-5.44,4.3-4.3,21.75-2.94,19.03,5.22,0,.45-18.13,36.01-27.42,54.14-2.03,4.07.22,15.41,6.13,11.1,9.28-6.57,22.87-20.61,23.33-22.2,10.63-30.13,45.98-91.3,93.1-116.43,7.93-4.09,22.88.9,18.12,13.81-16.4,43.38-35.71,62.45-64.78,84-.53.38-.86.59-1.23.83-6.13,4.28-23.96,14.79-24.83,18.47,0,.68-3.85,12.69-1.82,18.58,2.95,9.06,12.01,7.93,18.57,3.16,24.48-17.67,33.77-45.07,49.4-69.99,12.68-20.16,26.51-37.38,46.66-53.46,9.3-7.48,18.58-17.44,30.81-15.86,5.43.68,8.38,6.35,7.7,9.98-9.29,38.05-32.17,63.2-55.72,82.45-10.88,8.84-21.75,16.53-31.49,23.56-2.5,1.82-8.6,35.79,16.31,24.02,12.01-5.67,24.24-23.34,31.49-32.17,3.62-4.53,9.97,1.59,7.02,7.7-7.47,14.96-17.44,27.41-31.03,37.84-9.97,7.94-22.42,11.78-34.2,7.03-9.07-3.63-12.24-12.92-14.73-20.85-8.84,10.19-21.07,18.8-33.98,22.43-20.16,5.66-28.32-8.84-28.55-20.62-12.68,10.19-36.92,35.8-49.15,8.83-13.82,7.71-38.73,24.25-55.5-3.39-11.55,7.69-24.69,21.29-37.83,12.91-8.61-5.43-12.44-15.17-8.38-24.01,7.26-15.63,21.3-41,22.2-42.59,1.81-3.17-2.94-4.99-5.66-2.72-11.56,9.29-20.85,16.76-21.29,17.89-5.89,12.92-16.54,36.03-22.43,48.49-3.41,7.47-17.44,7.25-21.07,1.8-5.21-7.7,2.04-14.95,5.21-21.96-15.85,10.65-26.95,22.42-43.95,25.37-13.36,2.49-27.86-3.18-33.07-15.86-15.86,8.37-33.76,24-50.52,11.32-14.51-10.87-7.03-38.05,26.5-70.45.65-.66.65-1.25,0-1.81l-5.21-2.03c-12.23,16.77-38.96,57.54-55.49,68.63-17.9,11.79-29.68,14.96-37.84.23-18.12,12.91-42.14,15.18-51.88-5.21l-.23.22c-13.13,10.42-23.32,18.35-44.85,14.29-10.42-2.05-15.85-11.79-16.98-21.53-1.59-15.62,1.13-31.49,3.16-46.89-13.36,22.88-26.27,48.47-45.08,67.95-3.4,3.17-14.5.9-13.36-5.21,4.53-25.6,18.58-61.17,16.98-84.95-19.02,41.22-47.57,106.69-104.42,87.67-39.87-13.36-30.58-85.64,25.37-63.43,6.56,2.72,2.71,14.71-3.17,12.45-27.19-10.88-33.3,33.98-5.67,35.8,17.44,1.13,29.45-9.97,35.12-18.81,36.7-55.95,47.79-109.86,90.84-174.65,5.89-9.06,21.07.22,16.08,9.97-7.02,13.6-13.14,28.77-19.03,47.8-6.56,21.52-10.19,41.45-9.97,63.43,29.68-43.95,58.45-86.99,99.68-122.56,1.81-1.58,5.67-1.13,8.15-.22,4.3,1.36,4.98,6.57,2.94,9.52-43.27,67.73-84.5,137.05-74.76,178.27,2.27,8.84,7.94,7.03,14.96,5.89,6.79-1.13,22.88-14.95,24.23-18.35,10.2-26.96,30.81-48.71,58.9-55.73,9.29-2.48,18.8-.21,25.83,6.35,3.84-7.92,14.95-9.06,20.39-3.16,1.13,1.35.9,4.75,0,6.56-10.2,19.27-19.03,36.26-29.22,54.38-.68,1.36.9,4.3,3.16,3.62,14.95-4.76,35.11-36.11,52.33-61.26h0ZM829.44,540.23c.45.33,19.03-12.57,31.48-27.08,9.97-11.54,22.88-36.46,22.21-37.37-1.14-.46-15.64,12.91-28.77,27.87-9.98,11.54-24.92,36.47-24.92,36.58h0Z"/>
</svg>